<svg width="230" height="38" viewBox="0 0 230 38" fill="none" xmlns="http://www.w3.org/2000/svg">
<path fill-rule="evenodd" clip-rule="evenodd" d="M1.25437 10.0353C2.00124 9.28855 2.8856 8.87504 3.90793 8.79489V8.65025C3.90793 7.81115 4.58816 7.13093 5.42726 7.13093C6.26636 7.13093 6.94659 7.81115 6.94659 8.65025V8.78044H8.03026L8.88337 6.50521C9.09539 5.95876 9.4828 5.48743 10.0464 5.09129C10.6097 4.69532 11.1869 4.49719 11.7781 4.49719H20.3444C20.9356 4.49719 21.5128 4.69532 22.0762 5.09129C22.6395 5.48743 23.027 5.95876 23.2389 6.50521L24.0922 8.78044H27.8399C29.0224 8.78044 30.0316 9.19879 30.8682 10.0353C31.7047 10.8718 32.1229 11.8811 32.1229 13.0635V28.0544C32.1229 29.2368 31.7047 30.2463 30.8682 31.0826C30.0316 31.9192 29.0223 32.3376 27.8399 32.3376H4.28297C3.10059 32.3376 2.09148 31.9192 1.25478 31.0826C0.418369 30.2463 1.90735e-05 29.2368 1.90735e-05 28.0544V13.0635C-0.000213623 11.8811 0.418135 10.8718 1.25437 10.0353ZM16.4962 12.7742C12.1553 12.7742 9.11663 15.8128 9.11663 20.1538C9.11663 24.4947 12.1553 27.5333 16.4962 27.5333C20.8371 27.5333 23.8758 24.2776 23.8758 20.1538C23.8758 16.0299 20.6201 12.7742 16.4962 12.7742ZM16.4962 25.637C13.4727 25.637 11.0129 23.1772 11.0129 20.1538C11.0129 17.1303 13.4727 14.6705 16.4962 14.6705C19.5197 14.6705 21.9795 17.1303 21.9795 20.1538C21.9795 23.1772 19.5197 25.637 16.4962 25.637ZM17.5117 19.9392H20.224C20.5672 19.9392 20.8454 20.2174 20.8454 20.5606C20.8454 20.9039 20.5672 21.1821 20.224 21.1821H17.5117C17.302 21.5237 16.925 21.7521 16.4956 21.7521C15.8387 21.7521 15.3042 21.2176 15.3042 20.5606C15.3042 20.1313 15.5326 19.7543 15.8742 19.5446V16.2839C15.8742 15.9407 16.1524 15.6625 16.4956 15.6625C16.8388 15.6625 17.1171 15.9407 17.1171 16.2839V19.5446C17.2776 19.6431 17.4132 19.7786 17.5117 19.9392ZM29.047 14.6124C29.0516 14.62 29.0565 14.6294 29.0617 14.6407C29.067 14.652 29.0723 14.672 29.0776 14.7006C29.0829 14.7292 29.0825 14.7549 29.0765 14.7775C29.0704 14.8 29.0516 14.8208 29.02 14.8396C28.9884 14.8584 28.9439 14.8679 28.8866 14.8679L28.3081 14.8769C28.2718 14.8844 28.2297 14.8807 28.1815 14.8656C28.1333 14.8505 28.0941 14.834 28.064 14.8159L28.0188 14.7887C27.9736 14.7571 27.9209 14.7089 27.8606 14.6441C27.8003 14.5793 27.7487 14.521 27.7058 14.4689C27.6628 14.417 27.6168 14.3733 27.5679 14.3379C27.5189 14.3024 27.4763 14.2907 27.4401 14.3028C27.4356 14.3043 27.4296 14.3069 27.4221 14.3107C27.4146 14.3145 27.4017 14.3254 27.3836 14.3435C27.3656 14.3615 27.3494 14.3838 27.3351 14.4101C27.3207 14.4365 27.3079 14.4757 27.2966 14.5277C27.2853 14.5796 27.2804 14.638 27.2819 14.7028C27.2819 14.7254 27.2793 14.7461 27.274 14.7649C27.2688 14.7837 27.2631 14.7977 27.2571 14.8067L27.2481 14.818C27.2209 14.8466 27.181 14.8632 27.1283 14.8678H26.8684C26.7614 14.8738 26.6514 14.8614 26.5384 14.8304C26.4254 14.7996 26.3263 14.7596 26.2412 14.7107C26.156 14.6617 26.0784 14.612 26.0084 14.5615C25.9383 14.511 25.8852 14.4677 25.849 14.4315L25.7925 14.3773C25.7775 14.3622 25.7567 14.3397 25.7303 14.3095C25.704 14.2794 25.6501 14.2108 25.5688 14.1038C25.4874 13.9969 25.4075 13.8831 25.3292 13.7625C25.2509 13.6421 25.1585 13.4831 25.0523 13.2857C24.9461 13.0883 24.8478 12.8834 24.7574 12.6709C24.7483 12.6468 24.7438 12.6265 24.7438 12.6099C24.7438 12.5933 24.7461 12.5813 24.7506 12.5737L24.7597 12.5602C24.7823 12.5316 24.8252 12.5172 24.8885 12.5172L25.5078 12.5127C25.5259 12.5157 25.5432 12.5206 25.5598 12.5274C25.5763 12.5342 25.5884 12.5406 25.5959 12.5466L25.6072 12.5534C25.6313 12.57 25.6494 12.5941 25.6615 12.6257C25.6916 12.7011 25.7262 12.779 25.7654 12.8597C25.8046 12.9403 25.8355 13.0017 25.8581 13.0439L25.8942 13.1094C25.9379 13.1998 25.9801 13.2782 26.0208 13.3445C26.0615 13.4108 26.098 13.4624 26.1304 13.4993C26.1628 13.5362 26.1941 13.5652 26.2242 13.5863C26.2544 13.6074 26.28 13.618 26.3011 13.618C26.3221 13.618 26.3425 13.6141 26.3621 13.6066C26.3651 13.6052 26.3689 13.6014 26.3734 13.5953C26.3779 13.5893 26.3869 13.5728 26.4005 13.5456C26.4141 13.5185 26.4242 13.4831 26.431 13.4394C26.4378 13.3957 26.445 13.3347 26.4525 13.2563C26.46 13.178 26.46 13.0838 26.4525 12.9738C26.4495 12.9136 26.4427 12.8586 26.4322 12.8089C26.4216 12.7591 26.4111 12.7245 26.4005 12.7049L26.3869 12.6777C26.3493 12.6265 26.2853 12.5941 26.1948 12.5806C26.1753 12.5776 26.179 12.5595 26.2062 12.5263C26.2318 12.4977 26.2604 12.4751 26.292 12.4586C26.3719 12.4194 26.552 12.4013 26.8322 12.4043C26.9558 12.4058 27.0575 12.4156 27.1374 12.4337C27.1675 12.4412 27.1927 12.4514 27.2131 12.4642C27.2334 12.477 27.2488 12.4951 27.2594 12.5184C27.2699 12.5418 27.2779 12.5659 27.2831 12.5908C27.2883 12.6156 27.291 12.6499 27.291 12.6936C27.291 12.7373 27.2903 12.7787 27.2887 12.8179C27.2872 12.8571 27.2854 12.9102 27.2831 12.9772C27.2808 13.0443 27.2797 13.1064 27.2797 13.1637C27.2797 13.1803 27.279 13.2119 27.2774 13.2586C27.2759 13.3053 27.2756 13.3415 27.2763 13.3671C27.2771 13.3928 27.2797 13.4232 27.2842 13.4587C27.2887 13.4941 27.2974 13.5235 27.3102 13.5468C27.323 13.5702 27.34 13.5886 27.361 13.6022C27.3731 13.6052 27.3859 13.6082 27.3995 13.6112C27.4131 13.6143 27.4326 13.606 27.4582 13.5864C27.4839 13.5668 27.5125 13.5408 27.5441 13.5084C27.5758 13.476 27.6149 13.4255 27.6616 13.357C27.7084 13.2884 27.7596 13.2075 27.8154 13.114C27.9058 12.9573 27.9864 12.7878 28.0572 12.6055C28.0632 12.5904 28.0708 12.5772 28.0798 12.5659C28.0888 12.5546 28.0971 12.5467 28.1046 12.5422L28.1136 12.5354L28.125 12.5298L28.1544 12.523C28.174 12.5184 28.189 12.5181 28.1996 12.5218L28.8505 12.5173C28.9093 12.5098 28.9575 12.5117 28.9952 12.523C29.0328 12.5343 29.0561 12.5467 29.0652 12.5603L29.0787 12.5828C29.1133 12.6793 29.0003 12.9007 28.7396 13.2473C28.7035 13.2955 28.6545 13.3595 28.5927 13.4394C28.4752 13.5901 28.4074 13.6887 28.3893 13.7354C28.3637 13.7973 28.3742 13.8583 28.421 13.9185C28.4466 13.9502 28.5076 14.012 28.6041 14.1039H28.6063L28.6086 14.1062L28.6109 14.1084L28.6153 14.1129C28.8278 14.3103 28.9717 14.4768 29.047 14.6124Z" fill="#6184FF"/>
<path d="M44.2844 24.0022C44.2844 26.3922 46.2374 27.9341 48.6274 27.9341C51.5056 27.9341 52.7391 25.467 52.7391 25.467H52.7905C52.7905 25.467 52.7391 25.6726 52.7391 26.0324V26.5464C52.7391 27.2659 53.0989 27.6257 53.7927 27.6257H54.6665C55.386 27.6257 55.7458 27.2659 55.7458 26.5464V19.4279C55.7458 16.1128 53.7156 14.2112 50.3235 14.2112C48.3704 14.2112 46.8799 14.8536 46.0318 15.2905C45.4151 15.6246 45.3123 16.1385 45.6207 16.7296L45.8777 17.2179C46.186 17.8346 46.6743 17.9374 47.3168 17.6547C47.9335 17.3207 48.9358 16.9095 50.0408 16.9095C51.3771 16.9095 52.4821 17.5006 52.4821 19.2223V19.5307H51.9425C49.0129 19.5307 44.2844 20.1732 44.2844 24.0022ZM47.5224 23.7195C47.5224 21.7665 50.3235 21.5095 51.9682 21.5095H52.5078V21.9978C52.5078 23.5911 51.3257 25.4413 49.5011 25.4413C48.1905 25.4413 47.5224 24.5933 47.5224 23.7195Z" fill="#6184FF"/>
<path d="M61.5404 26.7519C61.7203 27.3687 62.1314 27.6257 62.7482 27.6257H64.8041C65.4208 27.6257 65.8063 27.3687 66.0119 26.7519L69.9694 15.7531C70.2264 15.0078 69.8923 14.5195 69.0957 14.5195H67.8879C67.2711 14.5195 66.8599 14.8022 66.6801 15.419L64.2387 22.6402C63.9817 23.4112 63.7761 24.619 63.7761 24.619H63.7247C63.7247 24.619 63.4935 23.4112 63.2365 22.6402L60.7951 15.419C60.6152 14.8022 60.2041 14.5195 59.5873 14.5195H58.3795C57.5828 14.5195 57.2745 15.0078 57.5314 15.7531L61.5404 26.7519Z" fill="#6184FF"/>
<path d="M71.0367 24.0022C71.0367 26.3922 72.9898 27.9341 75.3797 27.9341C78.258 27.9341 79.4915 25.467 79.4915 25.467H79.5429C79.5429 25.467 79.4915 25.6726 79.4915 26.0324V26.5464C79.4915 27.2659 79.8512 27.6257 80.5451 27.6257H81.4188C82.1384 27.6257 82.4982 27.2659 82.4982 26.5464V19.4279C82.4982 16.1128 80.468 14.2112 77.0758 14.2112C75.1228 14.2112 73.6323 14.8536 72.7842 15.2905C72.1674 15.6246 72.0647 16.1385 72.373 16.7296L72.63 17.2179C72.9384 17.8346 73.4267 17.9374 74.0691 17.6547C74.6859 17.3207 75.6881 16.9095 76.7931 16.9095C78.1295 16.9095 79.2345 17.5006 79.2345 19.2223V19.5307H78.6948C75.7652 19.5307 71.0367 20.1732 71.0367 24.0022ZM74.2747 23.7195C74.2747 21.7665 77.0758 21.5095 78.7205 21.5095H79.2602V21.9978C79.2602 23.5911 78.0781 25.4413 76.2535 25.4413C74.9429 25.4413 74.2747 24.5933 74.2747 23.7195Z" fill="#6184FF"/>
<path d="M169.127 22.9486C169.127 26.495 171.903 27.7542 174.241 27.7542C175.141 27.7542 175.578 27.4458 175.578 26.6749V25.8782C175.578 25.1587 175.295 24.9017 174.498 24.8246C173.599 24.7218 172.391 24.3363 172.391 22.3832V17.295H174.318C174.986 17.295 175.372 16.9352 175.372 16.2156V15.7788C175.372 15.0849 174.986 14.6994 174.293 14.6994H172.391V12.0268C172.391 11.333 172.005 10.9475 171.312 10.9475H170.284C169.59 10.9475 169.204 11.333 169.204 12.0268V14.6994H168.459C167.74 14.6994 167.38 15.0849 167.38 15.7788V16.2156C167.38 16.9352 167.74 17.295 168.433 17.295H169.127V22.9486Z" fill="#6184FF"/>
<path d="M178.822 12.2838H179.953C180.647 12.2838 181.032 11.924 181.032 11.2302V10.4592C181.032 9.76536 180.647 9.37988 179.953 9.37988H178.822C178.128 9.37988 177.768 9.76536 177.768 10.4592V11.2302C177.768 11.924 178.128 12.2838 178.822 12.2838ZM177.768 26.5464C177.768 27.2659 178.128 27.6257 178.822 27.6257H179.953C180.647 27.6257 181.006 27.2659 181.006 26.5464V15.5989C181.006 14.905 180.647 14.5195 179.953 14.5195H178.822C178.128 14.5195 177.768 14.905 177.768 15.5989V26.5464Z" fill="#6184FF"/>
<path d="M184.243 26.5464C184.243 27.2659 184.603 27.6257 185.297 27.6257H186.428C187.121 27.6257 187.481 27.2659 187.481 26.5464V21.7408C187.481 19.5564 188.561 17.1922 190.873 17.1922C192.415 17.1922 192.621 18.4 192.621 19.8134V26.5464C192.621 27.2659 193.006 27.6257 193.7 27.6257H194.831C195.525 27.6257 195.885 27.2659 195.885 26.5464V21.7408C195.885 19.4536 197.015 17.1922 199.225 17.1922C200.742 17.1922 201.024 18.3229 201.024 19.8134V26.5464C201.024 27.2659 201.384 27.6257 202.104 27.6257H203.209C203.902 27.6257 204.288 27.2659 204.288 26.5464V19.1966C204.288 15.7531 202.72 14.2112 199.996 14.2112C197.94 14.2112 196.219 15.5475 195.525 16.9095H195.473C194.934 15.1363 193.623 14.2112 191.644 14.2112C189.589 14.2112 187.995 15.7017 187.353 16.9866H187.301C187.301 16.9866 187.353 16.6782 187.353 16.3955V15.5989C187.353 14.905 186.993 14.5195 186.299 14.5195H185.297C184.603 14.5195 184.243 14.905 184.243 15.5989V26.5464Z" fill="#6184FF"/>
<path d="M206.535 21.0726C206.535 24.7989 209.233 27.9341 213.576 27.9341C215.632 27.9341 217.174 27.1631 218.022 26.6235C218.587 26.2894 218.69 25.7754 218.382 25.1844L218.074 24.6704C217.739 24.0793 217.277 24.0022 216.634 24.3106C216.018 24.6961 215.015 25.1587 213.808 25.1587C211.829 25.1587 210.081 23.9251 209.876 21.5609H217.868C218.51 21.5609 218.999 21.0212 218.999 20.4559C218.999 16.8581 216.917 14.2112 213.191 14.2112C209.259 14.2112 206.535 17.038 206.535 21.0726ZM209.953 19.5821C210.261 17.8346 211.443 16.6782 213.114 16.6782C214.604 16.6782 215.709 17.7575 215.761 19.5821H209.953Z" fill="#6184FF"/>
<path d="M221.36 26.5464C221.36 27.2659 221.72 27.6257 222.414 27.6257H223.545C224.239 27.6257 224.598 27.2659 224.598 26.5464V22.3318C224.598 19.9419 225.755 17.5776 228.145 17.5776C228.838 17.5776 229.25 17.1922 229.25 16.4983V15.4961C229.25 14.7765 228.993 14.4168 228.273 14.4168C226.423 14.4168 224.984 16.1642 224.47 17.7318H224.418C224.418 17.7318 224.495 17.3207 224.495 16.8324V15.5989C224.495 14.905 224.11 14.5195 223.416 14.5195H222.414C221.72 14.5195 221.36 14.905 221.36 15.5989V26.5464Z" fill="#6184FF"/>
<path d="M84.8048 23.2056C84.8048 26.7776 86.5523 28.191 89.3534 28.191C91.5892 28.191 93.2853 26.7776 93.902 25.4413H93.9534C93.9534 25.4413 93.902 25.724 93.902 26.0324V26.8033C93.902 27.5229 94.2618 27.8827 94.9556 27.8827H95.9579C96.6517 27.8827 97.0372 27.5229 97.0372 26.8033V15.8558C97.0372 15.162 96.6517 14.7765 95.9579 14.7765H94.8529C94.1333 14.7765 93.7735 15.162 93.7735 15.8558V20.7899C93.7735 23.1285 92.4629 25.21 90.0987 25.21C88.4797 25.21 88.0685 24.1307 88.0685 22.5374V15.8558C88.0685 15.162 87.7087 14.7765 86.9892 14.7765H85.8841C85.1903 14.7765 84.8048 15.162 84.8048 15.8558V23.2056Z" fill="#535353"/>
<path d="M100.243 31.943C100.243 32.6625 100.629 33.0223 101.322 33.0223H102.427C103.147 33.0223 103.507 32.6625 103.507 31.943V27.3173C103.507 26.6491 103.43 26.1866 103.43 26.1866H103.481C103.481 26.1866 104.535 28.191 107.259 28.191C110.702 28.191 113.272 25.4927 113.272 21.3296C113.272 17.2692 110.985 14.4681 107.439 14.4681C104.381 14.4681 103.224 16.781 103.224 16.781H103.173C103.173 16.781 103.198 16.5497 103.198 16.267V15.6759C103.198 15.162 102.839 14.7765 102.145 14.7765H101.322C100.629 14.7765 100.243 15.162 100.243 15.8558V31.943ZM103.404 21.4067C103.404 18.5028 105.023 17.2692 106.719 17.2692C108.621 17.2692 109.957 18.8882 109.957 21.381C109.957 23.9765 108.467 25.4413 106.668 25.4413C104.535 25.4413 103.404 23.4368 103.404 21.4067Z" fill="#535353"/>
<path d="M114.956 21.3296C114.956 25.3899 117.244 28.191 120.79 28.191C123.797 28.191 124.902 25.9296 124.902 25.9296H124.953C124.953 25.9296 124.902 26.1352 124.902 26.3921V26.9061C124.902 27.5486 125.261 27.8827 125.955 27.8827H126.906C127.6 27.8827 127.96 27.5229 127.96 26.8033V10.7162C127.96 10.0223 127.6 9.63684 126.906 9.63684H125.775C125.082 9.63684 124.722 10.0223 124.722 10.7162V15.5989C124.722 16.01 124.773 16.3441 124.773 16.3441H124.722C124.722 16.3441 123.771 14.4681 120.893 14.4681C117.423 14.4681 114.956 17.1665 114.956 21.3296ZM118.246 21.3296C118.246 18.734 119.762 17.2692 121.535 17.2692C123.745 17.2692 124.799 19.2737 124.799 21.3039C124.799 24.2078 123.206 25.4413 121.509 25.4413C119.582 25.4413 118.246 23.8223 118.246 21.3296Z" fill="#535353"/>
<path d="M130.209 24.2592C130.209 26.6491 132.162 28.191 134.552 28.191C137.431 28.191 138.664 25.724 138.664 25.724H138.715C138.715 25.724 138.664 25.9296 138.664 26.2894V26.8033C138.664 27.5229 139.024 27.8827 139.718 27.8827H140.591C141.311 27.8827 141.671 27.5229 141.671 26.8033V19.6849C141.671 16.3698 139.641 14.4681 136.248 14.4681C134.295 14.4681 132.805 15.1106 131.957 15.5475C131.34 15.8815 131.237 16.3955 131.546 16.9866L131.803 17.4748C132.111 18.0916 132.599 18.1944 133.242 17.9117C133.858 17.5776 134.861 17.1665 135.966 17.1665C137.302 17.1665 138.407 17.7575 138.407 19.4793V19.7877H137.867C134.938 19.7877 130.209 20.4301 130.209 24.2592ZM133.447 23.9765C133.447 22.0234 136.248 21.7665 137.893 21.7665H138.433V22.2547C138.433 23.848 137.251 25.6983 135.426 25.6983C134.115 25.6983 133.447 24.8502 133.447 23.9765Z" fill="#535353"/>
<path d="M145.282 23.2056C145.282 26.7519 148.058 28.0111 150.396 28.0111C151.296 28.0111 151.732 27.7028 151.732 26.9318V26.1352C151.732 25.4156 151.45 25.1586 150.653 25.0815C149.754 24.9787 148.546 24.5933 148.546 22.6402V17.5519H150.473C151.141 17.5519 151.527 17.1921 151.527 16.4726V16.0357C151.527 15.3419 151.141 14.9564 150.448 14.9564H148.546V12.2838C148.546 11.5899 148.16 11.2044 147.467 11.2044H146.439C145.745 11.2044 145.359 11.5899 145.359 12.2838V14.9564H144.614C143.894 14.9564 143.535 15.3419 143.535 16.0357V16.4726C143.535 17.1921 143.894 17.5519 144.588 17.5519H145.282V23.2056Z" fill="#535353"/>
<path d="M153.026 21.3296C153.026 25.0558 155.725 28.191 160.068 28.191C162.124 28.191 163.666 27.4201 164.514 26.8804C165.079 26.5463 165.182 26.0324 164.873 25.4413L164.565 24.9273C164.231 24.3363 163.768 24.2592 163.126 24.5676C162.509 24.953 161.507 25.4156 160.299 25.4156C158.32 25.4156 156.573 24.1821 156.367 21.8178H164.359C165.002 21.8178 165.49 21.2782 165.49 20.7128C165.49 17.1151 163.409 14.4681 159.682 14.4681C155.75 14.4681 153.026 17.2949 153.026 21.3296ZM156.444 19.8391C156.753 18.0916 157.935 16.9352 159.605 16.9352C161.096 16.9352 162.201 18.0145 162.252 19.8391H156.444Z" fill="#535353"/>
</svg>
