<svg width="65" height="64" viewBox="0 0 65 64" fill="none" xmlns="http://www.w3.org/2000/svg">
<path d="M62.4832 43.9974C61.3796 43.9974 60.484 44.8936 60.484 45.9977V59.9996H4.50561V45.9977C4.50561 44.8935 3.60988 43.9974 2.50643 43.9974C1.40297 43.9974 0.50708 44.8936 0.50708 45.9977V61.9998C0.50708 63.104 1.40281 64 2.50626 64H62.4832C63.5868 64 64.4824 63.1038 64.4824 61.9998V45.9977C64.4825 44.8916 63.5868 43.9974 62.4832 43.9974Z" fill="#6184FF"/>
<path d="M19.9615 17.2057L30.5075 6.80425V45.9957C30.5075 47.0999 31.4112 47.9959 32.5268 47.9959C33.6424 47.9959 34.5461 47.0997 34.5461 45.9957V6.80442L45.0921 17.2059C45.8798 17.988 47.1592 17.988 47.9469 17.2059C48.7346 16.4238 48.7366 15.1576 47.9469 14.3775L33.9543 0.577624C33.1746 -0.196527 31.8631 -0.188546 31.0975 0.577624L17.1067 14.3773C16.317 15.1595 16.319 16.4256 17.1067 17.2057C17.8944 17.9879 19.1738 17.9879 19.9615 17.2057Z" fill="#6184FF"/>
</svg>
