<svg width="26" height="16" viewBox="0 0 26 16" fill="none" xmlns="http://www.w3.org/2000/svg">
<path d="M25.8621 13.954C25.8306 13.8861 25.8013 13.8299 25.774 13.7848C25.3229 12.9723 24.4609 11.9751 23.1884 10.7928L23.1615 10.7658L23.1481 10.7525L23.1345 10.7389H23.1208C22.5433 10.1884 22.1776 9.81819 22.0245 9.62868C21.7442 9.26766 21.6815 8.90224 21.8346 8.53199C21.9428 8.25224 22.3492 7.66146 23.053 6.75884C23.4231 6.28048 23.7163 5.89709 23.9328 5.60824C25.4942 3.53245 26.1711 2.20599 25.9634 1.62834L25.8828 1.49335C25.8286 1.41208 25.6887 1.33774 25.4634 1.26994C25.2375 1.20228 24.9488 1.19109 24.5967 1.23618L20.6981 1.26311C20.635 1.24073 20.5448 1.24281 20.4273 1.26994C20.31 1.29706 20.2513 1.31066 20.2513 1.31066L20.1834 1.34457L20.1295 1.38529C20.0844 1.41223 20.0348 1.45959 19.9806 1.5273C19.9267 1.59477 19.8816 1.67395 19.8455 1.76418C19.4211 2.85618 18.9385 3.87146 18.3969 4.80997C18.063 5.3696 17.7563 5.8546 17.4762 6.26526C17.1965 6.67577 16.9619 6.97822 16.7725 7.1721C16.5828 7.36617 16.4117 7.52164 16.2579 7.63908C16.1045 7.75657 15.9873 7.80622 15.9062 7.78806C15.8249 7.7699 15.7483 7.75188 15.6758 7.73386C15.5495 7.65259 15.448 7.54207 15.3714 7.4022C15.2945 7.26233 15.2427 7.08628 15.2156 6.8742C15.1887 6.66197 15.1728 6.47943 15.1682 6.32595C15.164 6.17266 15.1659 5.95583 15.1751 5.67609C15.1845 5.3962 15.1887 5.20683 15.1887 5.10754C15.1887 4.76455 15.1954 4.3923 15.2088 3.9907C15.2225 3.58911 15.2335 3.27091 15.2428 3.03649C15.252 2.80184 15.2562 2.55358 15.2562 2.29185C15.2562 2.03013 15.2403 1.82487 15.2088 1.6759C15.1777 1.52711 15.13 1.38269 15.067 1.24267C15.0037 1.1028 14.9111 0.994602 14.7895 0.917791C14.6677 0.841075 14.5163 0.780195 14.3361 0.734962C13.8577 0.626715 13.2486 0.568159 12.5084 0.559055C10.8299 0.541038 9.75134 0.649426 9.27303 0.884079C9.08351 0.983222 8.91202 1.11868 8.75868 1.29004C8.59619 1.48866 8.57353 1.59705 8.69083 1.61487C9.23239 1.696 9.61578 1.89007 9.84143 2.19688L9.92274 2.35947C9.98599 2.47677 10.0491 2.68444 10.1124 2.9822C10.1755 3.27997 10.2162 3.60935 10.2341 3.97017C10.2792 4.62909 10.2792 5.19313 10.2341 5.66234C10.1889 6.13174 10.1463 6.49716 10.1055 6.75889C10.0648 7.02061 10.0039 7.2327 9.92274 7.39509C9.84143 7.55753 9.78733 7.65681 9.76021 7.69285C9.73313 7.72888 9.71057 7.7516 9.69264 7.76051C9.57534 7.80546 9.45334 7.82836 9.32708 7.82836C9.20063 7.82836 9.04729 7.76511 8.86683 7.6387C8.68642 7.5123 8.49918 7.33867 8.30511 7.11753C8.11105 6.89634 7.89218 6.58725 7.64843 6.1902C7.40486 5.79315 7.15214 5.3239 6.89042 4.78243L6.67388 4.38974C6.53851 4.13712 6.35359 3.76928 6.11894 3.28656C5.88415 2.80364 5.67661 2.33652 5.4962 1.88528C5.42409 1.69576 5.31575 1.55148 5.17137 1.4522L5.10361 1.41147C5.05857 1.37543 4.98626 1.33717 4.88707 1.29639C4.78774 1.25566 4.68409 1.22646 4.5757 1.20849L0.866541 1.23542C0.487513 1.23542 0.230338 1.32129 0.0949232 1.49278L0.0407288 1.57391C0.0136553 1.61909 0 1.69126 0 1.79059C0 1.88988 0.0270735 2.01173 0.0812679 2.15601C0.622738 3.42861 1.21157 4.65592 1.84778 5.83815C2.48398 7.02037 3.03683 7.97269 3.50599 8.69424C3.97525 9.41631 4.45357 10.0978 4.94094 10.7384C5.42831 11.3792 5.75091 11.7898 5.90875 11.9702C6.06679 12.151 6.19092 12.2861 6.28115 12.3763L6.61964 12.7012C6.83622 12.9178 7.15428 13.1772 7.57394 13.4795C7.9937 13.782 8.4584 14.0797 8.9683 14.3733C9.47828 14.6663 10.0716 14.9055 10.7485 15.0905C11.4253 15.2756 12.0841 15.3499 12.7249 15.3141H14.2817C14.5975 15.2868 14.8367 15.1875 14.9992 15.0162L15.0531 14.9483C15.0893 14.8944 15.1232 14.8108 15.1545 14.6982C15.1862 14.5854 15.2019 14.4611 15.2019 14.3259C15.1927 13.9379 15.2222 13.5882 15.2897 13.2769C15.3572 12.9657 15.4341 12.731 15.5201 12.573C15.6061 12.4151 15.7031 12.2819 15.8111 12.1739C15.9193 12.0656 15.9964 12 16.0416 11.9775C16.0865 11.9548 16.1224 11.9394 16.1495 11.9301C16.3661 11.8579 16.621 11.9278 16.9146 12.1401C17.2079 12.3522 17.4831 12.6141 17.7404 12.9253C17.9977 13.2368 18.3067 13.5863 18.6676 13.9743C19.0288 14.3624 19.3446 14.6509 19.6152 14.8407L19.8858 15.0032C20.0666 15.1116 20.3012 15.2108 20.5901 15.3011C20.8784 15.3913 21.131 15.4138 21.3479 15.3687L24.8133 15.3147C25.1561 15.3147 25.4228 15.2579 25.612 15.1453C25.8015 15.0325 25.9141 14.9082 25.9504 14.7731C25.9867 14.6377 25.9886 14.4842 25.9573 14.3126C25.9252 14.1414 25.8936 14.0216 25.8621 13.954Z" fill="white"/>
</svg>
